<svg xmlns="http://www.w3.org/2000/svg" width="21.901" height="14.629" viewBox="0 0 21.901 14.629">
  <path id="Trazado_130995" data-name="Trazado 130995" d="M435.951,219.824q0-.6,0-1.2v-1.246q0-.6,0-1.2t0-1.2v-1.244q0-.6,0-1.2a5.176,5.176,0,0,0,0-.533,1.818,1.818,0,0,1,1.871-1.908c.192,0,.385-.006.577-.009h4.849c.219.044.449-.047.664.055a4.375,4.375,0,0,0,.486.486,8.379,8.379,0,0,0,.678.677l.617.618c.315.357.608.755,1.183.606l.022,0h4.848c.214,0,.428,0,.642.009a1.813,1.813,0,0,1,1.808,1.849c0,.2.006.4.009.6,0,.354,0,.708-.011,1.062,0,.1.029.144.137.141.354-.007.708-.007,1.062-.009.244,0,.489,0,.732.013a1.809,1.809,0,0,1,1.554,2.557c-.169.359-.4.69-.6,1.034a5.855,5.855,0,0,0-.443.712,3.38,3.38,0,0,0-.363.582q-.4.584-.751,1.2a.536.536,0,0,0-.132.215,10.208,10.208,0,0,0-.618.988,3.936,3.936,0,0,1-.614.8,3.162,3.162,0,0,1-.633.35l-.53.08a8.753,8.753,0,0,0-1.248,0,8.613,8.613,0,0,0-1.2,0,7.577,7.577,0,0,0-1.2,0,9.083,9.083,0,0,0-1.245,0,7.553,7.553,0,0,0-1.2,0,8.565,8.565,0,0,0-1.2,0,8.167,8.167,0,0,0-1.246,0,8.552,8.552,0,0,0-1.2,0,8.22,8.22,0,0,0-1.248,0,8.517,8.517,0,0,0-1.2,0,7.635,7.635,0,0,0-1.2,0,8.612,8.612,0,0,0-1.2,0c-.25-.009-.5-.015-.751-.028A1.8,1.8,0,0,1,436,223.307a7.032,7.032,0,0,1-.052-1.037q0-.622,0-1.244Q435.951,220.425,435.951,219.824Zm3.112,2.443c-.1.156-.2.313-.3.466-.075.113-.028.137.083.135.252-.006.5-.008.755-.012a7.878,7.878,0,0,0,1.205,0c.414.019.828.019,1.241,0a7.773,7.773,0,0,0,1.205,0q.6.028,1.2,0a8.607,8.607,0,0,0,1.25,0c.4.018.8.019,1.2,0a7.82,7.82,0,0,0,1.205,0q.621.029,1.241,0a7.87,7.87,0,0,0,1.205,0c.4.019.8.018,1.2,0,.383.041.768.007,1.152.018.081,0,.117-.048.153-.107l1.071-1.736a.218.218,0,0,0,.077-.128,12.446,12.446,0,0,0,.673-1.075,9.107,9.107,0,0,0,.574-.922.811.811,0,0,0,.177-.281,4.779,4.779,0,0,0,.389-.616H442.051c-.081,0-.162-.008-.242-.008s-.188-.024-.246.091c-.082.163-.18.319-.271.478-.512.8-1,1.624-1.48,2.448a1.547,1.547,0,0,0-.209.354A8.534,8.534,0,0,0,439.063,222.267Zm.544-10.345h-1.2c-.616-.045-.659,0-.619.607q0,.6,0,1.2,0,.622,0,1.245v1.2q0,.6,0,1.2v1.246q0,.6,0,1.2v1.115l.037.011.554-.949.076-.127c.269-.407.521-.823.754-1.251a6.136,6.136,0,0,0,.453-.753,2.577,2.577,0,0,0,.3-.494,7.428,7.428,0,0,1,.454-.647,2.049,2.049,0,0,1,1.594-.561h9.785c.148,0,.3,0,.444.009.1.006.143-.029.141-.137-.008-.355-.008-.71-.01-1.065.039-.625.01-.653-.617-.616H445.7a.347.347,0,0,1-.284-.128c-.166-.173-.343-.335-.515-.5a3.349,3.349,0,0,0-.445-.446,9.735,9.735,0,0,0-.756-.756,3.369,3.369,0,0,0-.445-.445c-.065-.088-.125-.176-.257-.172-.329.008-.658.008-.987.012h-2.4Z" transform="translate(-435.949 -210.079)" fill="#3e7dad"/>
</svg>
